<?xml version="1.0" encoding="UTF-8" standalone="no"?>
<!-- Created with Inkscape (http://www.inkscape.org/) -->

<svg
   xmlns:dc="http://purl.org/dc/elements/1.1/"
   xmlns:cc="http://creativecommons.org/ns#"
   xmlns:rdf="http://www.w3.org/1999/02/22-rdf-syntax-ns#"
   xmlns:svg="http://www.w3.org/2000/svg"
   xmlns="http://www.w3.org/2000/svg"
   xmlns:sodipodi="http://sodipodi.sourceforge.net/DTD/sodipodi-0.dtd"
   xmlns:inkscape="http://www.inkscape.org/namespaces/inkscape"
   id="svg2"
   version="1.1"
   inkscape:version="0.48.4 r9939"
   width="661.5"
   height="826.6625"
   xml:space="preserve"
   sodipodi:docname="unide-wallpaper-mobile.svg"
   inkscape:export-filename="/home/xavier/Documents/HiveTech/logo/unide-wallpaper-mobile.png"
   inkscape:export-xdpi="90"
   inkscape:export-ydpi="90"><metadata
     id="metadata8"><rdf:RDF><cc:Work
         rdf:about=""><dc:format>image/svg+xml</dc:format><dc:type
           rdf:resource="http://purl.org/dc/dcmitype/StillImage" /><dc:title></dc:title></cc:Work></rdf:RDF></metadata><defs
     id="defs6" /><sodipodi:namedview
     pagecolor="#ffffff"
     bordercolor="#666666"
     borderopacity="1"
     objecttolerance="10"
     gridtolerance="10"
     guidetolerance="10"
     inkscape:pageopacity="0"
     inkscape:pageshadow="2"
     inkscape:window-width="1366"
     inkscape:window-height="707"
     id="namedview4"
     showgrid="false"
     inkscape:zoom="1.1419412"
     inkscape:cx="357.63559"
     inkscape:cy="377.23166"
     inkscape:window-x="0"
     inkscape:window-y="29"
     inkscape:window-maximized="1"
     inkscape:current-layer="g12" /><g
     id="g10"
     inkscape:groupmode="layer"
     inkscape:label="ink_ext_XXXXXX"
     transform="matrix(1.25,0,0,-1.25,0,826.6625)"><g
       id="g12"
       transform="scale(0.1,0.1)"><path
         d="m 1009.7797,2442.249 3387.9728,0 0,1278.2852 -3387.9728,0 0,-1278.2852 z"
         style="fill:#43454a;fill-opacity:1;fill-rule:nonzero;stroke:none"
         id="path34"
         inkscape:connector-curvature="0" /><path
         d="m 2657.0092,2842.1266 -75.2704,0 0,399.7519 75.2704,0 0,-399.7519 z m -38.0409,472.0175 c -13.4916,0 -24.9626,4.2261 -34.3974,12.6833 -9.4452,8.457 -14.1601,19.8559 -14.1601,34.2111 0,14.3407 4.7149,25.7493 14.1601,34.2113 9.4348,8.4522 20.9058,12.6831 34.3974,12.6831 13.4865,0 24.9574,-4.2309 34.4025,-12.6831 9.435,-8.462 14.1652,-19.8706 14.1652,-34.2113 0,-14.3552 -4.7302,-25.7541 -14.1652,-34.2111 -9.4451,-8.4572 -20.916,-12.6833 -34.4025,-12.6833"
         style="fill:#c2c3c4;fill-opacity:1;fill-rule:nonzero;stroke:none"
         id="path36"
         inkscape:connector-curvature="0" /><path
         d="m 3043.9028,3157.3175 c -9.1849,7.1673 -22.401,14.0886 -39.6685,20.7573 -17.2728,6.6542 -36.158,9.9934 -56.6556,9.9934 -21.5896,0 -40.0666,-3.7269 -55.4463,-11.1468 -15.3744,-7.4345 -27.922,-17.6848 -37.6325,-30.7508 -9.7157,-13.0666 -16.7318,-28.5753 -21.0488,-46.5111 -4.3219,-17.947 -6.4703,-37.1627 -6.4703,-57.654 0,-46.6414 12.1395,-82.642 36.4234,-108.0083 24.2786,-25.3717 56.6554,-38.054 97.1303,-38.054 20.4977,0 37.6326,0.8859 51.3946,2.6883 13.757,1.7947 24.4064,3.7144 31.9737,5.7683 l 0,252.9177 z m 0,269.0611 75.2704,12.3003 0,-585.0172 c -17.2779,-4.6177 -39.3931,-9.2272 -66.3712,-13.8352 -26.9883,-4.6158 -58.0079,-6.9213 -93.0788,-6.9213 -32.3768,0 -61.5184,4.8746 -87.4148,14.6073 -25.9066,9.7307 -48.032,23.562 -66.3712,41.5056 -18.3544,17.9411 -32.5145,39.8471 -42.4955,65.7321 -9.9911,25.8753 -14.9765,54.9677 -14.9765,87.2553 0,30.7503 4.1741,58.9282 12.5476,84.5611 8.3583,25.6184 20.6405,47.665 36.8315,66.1154 16.1859,18.4456 36.0151,32.7863 59.4875,43.0512 23.4726,10.2454 50.3079,15.3682 80.5364,15.3682 24.2788,0 45.7256,-3.0727 64.3453,-9.2229 18.6148,-6.1453 32.5044,-12.0435 41.6893,-17.675 l 0,202.1751"
         style="fill:#c2c3c4;fill-opacity:1;fill-rule:nonzero;stroke:none"
         id="path38"
         inkscape:connector-curvature="0" /><path
         d="m 3499.5762,3080.4418 c 0.5358,32.2881 -7.9602,58.8071 -25.4932,79.5654 -17.5381,20.7574 -41.6842,31.1337 -72.4383,31.1337 -17.2778,0 -32.5146,-3.2036 -45.7306,-9.6057 -13.2313,-6.4119 -24.4217,-14.743 -33.5913,-24.983 -9.1848,-10.2644 -16.3287,-22.0418 -21.4518,-35.3657 -5.1334,-13.3316 -8.4961,-26.9076 -10.1136,-40.7447 l 208.8188,0 z m -288.952,-39.2011 c 0,35.3583 5.3885,66.2298 16.1858,92.63 10.7923,26.3885 25.0953,48.2994 42.9038,65.7272 17.8034,17.4183 38.301,30.4843 61.5133,39.2079 23.1919,8.7091 46.9399,13.0709 71.2238,13.0709 56.6607,0 100.0849,-16.7929 130.3135,-50.3548 30.2131,-33.5761 45.3275,-84.6972 45.3275,-153.3657 0,-3.0727 0,-7.0522 0,-11.9175 0,-4.8708 -0.2807,-9.3537 -0.8063,-13.4543 l -288.1509,0 c 3.2402,-41.5095 15.9104,-73.0266 38.046,-94.5536 22.1151,-21.5251 56.6606,-32.2876 103.6006,-32.2876 26.4321,0 48.6902,2.1713 66.7743,6.5331 18.0738,4.3467 31.6929,8.5782 40.8779,12.688 l 10.5218,-59.9653 c -9.1849,-4.61 -25.2279,-9.4903 -48.1595,-14.6078 -22.9419,-5.1135 -48.9709,-7.686 -78.1074,-7.686 -36.6988,0 -68.3919,5.257 -95.1097,15.7602 -26.7077,10.4975 -48.7004,24.9841 -65.9579,43.4293 -17.2778,18.4504 -30.0907,40.3618 -38.449,65.7316 -8.3736,25.3683 -12.5476,53.1618 -12.5476,83.4144"
         style="fill:#c2c3c4;fill-opacity:1;fill-rule:nonzero;stroke:none"
         id="path40"
         inkscape:connector-curvature="0" /><path
         d="m 2203.8616,2843.7356 c -17.2779,-4.1079 -40.0667,-8.4566 -68.397,-13.0699 -28.3252,-4.6138 -61.1051,-6.9159 -98.3397,-6.9159 -32.3768,0 -59.6305,4.4887 -81.7508,13.4547 -22.1356,8.9602 -39.939,21.6424 -53.4154,38.0486 -13.4966,16.3966 -23.207,35.752 -29.1416,58.0418 -5.9446,22.2976 -8.8991,47.0108 -8.8991,74.1854 l 0,224.4726 75.2652,0 0,-209.0968 c 0,-48.6919 8.098,-83.5467 24.2838,-104.5508 16.191,-21.0201 43.4293,-31.5176 81.7508,-31.5176 8.098,0 16.4513,0.2482 25.0952,0.7706 8.6186,0.4997 16.7165,1.1492 24.2838,1.9197 7.5471,0.7648 14.4255,1.5353 20.6356,2.306 6.1895,0.7706 10.6442,1.6584 13.3538,2.6864 l 0,337.4825 75.2754,0 0,-388.2173"
         style="fill:#ee2729;fill-opacity:1;fill-rule:nonzero;stroke:none"
         id="path62"
         inkscape:connector-curvature="0" /><path
         d="m 2130.7956,3230.3439 c 17.2676,4.0953 40.1891,8.4571 68.8052,13.0661 28.5906,4.6138 61.5082,6.9159 98.7377,6.9159 33.4535,0 61.2379,-4.4878 83.3735,-13.4489 22.1203,-8.9757 39.7859,-21.528 53.0122,-37.6717 13.2211,-16.1435 22.5233,-35.491 27.9272,-58.0368 5.3884,-22.5608 8.0929,-47.4081 8.0929,-74.5711 l 0,-224.4708 -75.2754,0 0,209.0964 c 0,24.6015 -1.7553,45.6062 -5.2609,63.0384 -3.5107,17.4187 -9.3074,31.517 -17.4003,42.2796 -8.0981,10.765 -18.8903,18.5774 -32.3768,23.4482 -13.4916,4.8609 -30.2286,7.2987 -50.1802,7.2987 -8.098,0 -16.4665,-0.2569 -25.0952,-0.7609 -8.6338,-0.5186 -16.8645,-1.1583 -24.687,-1.924 -7.8276,-0.7706 -14.8489,-1.672 -21.0436,-2.6946 -6.2049,-1.0324 -10.6545,-1.7981 -13.3539,-2.307 l 0,-337.4748 -75.2754,0 0,388.2173"
         style="fill:#ee2729;fill-opacity:1;fill-rule:nonzero;stroke:none"
         id="path64"
         inkscape:connector-curvature="0" /><flowRoot
         xml:space="preserve"
         id="flowRoot3041"
         style="fill:black;stroke:none;stroke-opacity:1;stroke-width:1px;stroke-linejoin:miter;stroke-linecap:butt;fill-opacity:1;font-family:Sans;font-style:normal;font-weight:normal;font-size:40px;line-height:125%;letter-spacing:0px;word-spacing:0px"><flowRegion
           id="flowRegion3043"><rect
             id="rect3045"
             width="233.44392"
             height="75.544189"
             x="390.72446"
             y="105.27739" /></flowRegion><flowPara
           id="flowPara3047" /></flowRoot></g></g></svg>